<svg width="206" height="231" viewBox="0 0 206 231" fill="none" xmlns="http://www.w3.org/2000/svg">
<path d="M143.143 84C143.143 96.1503 133.293 106 121.143 106C109.992 106 100.143 96.1503 100.143 84C100.143 71.8497 109.992 62 121.143 62C133.293 62 143.143 71.8497 143.143 84Z" fill="#FFC131"/>
<ellipse cx="84.1426" cy="63.8976" rx="15.8571" ry="6.2439" transform="rotate(-40.9946 84.1426 63.8976)" fill="#24C8DB"/>
<ellipse rx="82.1426" ry="141" transform="matrix(0.778061 -0.628212 0.628212 0.778061 63.8639 167.348)" fill="#FFC131"/>
<ellipse rx="63.1426" ry="110" transform="matrix(0.778061 -0.628212 0.628212 0.778061 63.8639 167.348)" fill="#24C8DB"/>
<ellipse cx="149.143" cy="32.1829" rx="6.85714" ry="17.5122" transform="rotate(40.9946 149.143 32.1829)" fill="#1BA1F2"/>
<ellipse cx="149.143" cy="32.1829" rx="11.8571" ry="30.4878" transform="rotate(40.9946 149.143 32.1829)" fill="#FFC131"/>
<ellipse cx="157.143" cy="175.83" rx="10.2857" ry="26.8293" transform="rotate(-49.0054 157.143 175.83)" fill="#24C8DB"/>
<ellipse cx="157.143" cy="175.83" rx="7.14286" ry="18.6829" transform="rotate(-49.0054 157.143 175.83)" fill="#1BA1F2"/>
<ellipse cx="184.143" cy="63.8976" rx="15.8571" ry="6.2439" transform="rotate(-40.9946 184.143 63.8976)" fill="#24C8DB"/>
<ellipse cx="184.143" cy="63.8976" rx="23.8571" ry="9.2439" transform="rotate(-40.9946 184.143 63.8976)" fill="#FFC131"/>
<ellipse cx="47.143" cy="149.83" rx="12.8571" ry="31.3415" transform="rotate(49.0054 47.143 149.83)" fill="#FFC131"/>
<ellipse cx="47.143" cy="149.83" rx="7.14286" ry="17.561" transform="rotate(49.0054 47.143 149.83)" fill="#24C8DB"/>
</svg>